<?xml version="1.0" encoding="iso-8859-1"?>
<!-- Uploaded to: SVG Repo, www.svgrepo.com, Generator: SVG Repo Mixer Tools -->
<svg height="50px" width="50px" version="1.1" id="Layer_1" xmlns="http://www.w3.org/2000/svg" xmlns:xlink="http://www.w3.org/1999/xlink" 
	 viewBox="0 0 512 512" xml:space="preserve">
<g>
	<circle style="fill:#FFFFFF;" cx="256" cy="256" r="26.122"/>
	<path style="fill:#FFFFFF;" d="M256,10.449C120.386,10.449,10.449,120.386,10.449,256S120.386,501.551,256,501.551
		S501.551,391.614,501.551,256S391.614,10.449,256,10.449z M256,322.873c-36.934,0-66.875-29.939-66.875-66.873
		s29.94-66.873,66.875-66.873s66.873,29.939,66.873,66.873S292.934,322.873,256,322.873z"/>
</g>
<path style="fill:#D6E3E9;" d="M69.719,415.976c30.311,35.263,70.464,61.812,116.196,75.409L442.281,96.024
	c-30.311-35.263-70.464-61.812-116.196-75.409L69.719,415.976z M256,322.873c-36.934,0-66.875-29.939-66.875-66.873
	s29.94-66.873,66.875-66.873s66.873,29.939,66.873,66.873S292.934,322.873,256,322.873z"/>
<path d="M256,512c-68.38,0-132.668-26.628-181.019-74.981S0,324.38,0,256S26.628,123.332,74.981,74.981S187.62,0,256,0
	s132.668,26.628,181.019,74.981S512,187.62,512,256s-26.628,132.668-74.981,181.019S324.38,512,256,512z M256,20.898
	C126.365,20.898,20.898,126.365,20.898,256S126.365,491.102,256,491.102S491.102,385.635,491.102,256S385.635,20.898,256,20.898z"/>
<path d="M335.175,75.712c-1.336,0-2.695-0.258-4.005-0.802c-23.835-9.906-49.126-14.928-75.169-14.928
	c-5.771,0-10.449-4.678-10.449-10.449s4.678-10.449,10.449-10.449c28.81,0,56.799,5.561,83.188,16.528
	c5.329,2.215,7.855,8.33,5.639,13.659C343.158,73.288,339.27,75.712,335.175,75.712z"/>
<path d="M462.468,266.449c-5.771,0-10.449-4.678-10.449-10.449c0-69.44-35.574-132.286-95.16-168.116
	c-4.946-2.974-6.544-9.394-3.57-14.339c2.975-4.946,9.396-6.544,14.339-3.57c31.513,18.948,57.894,45.784,76.292,77.609
	c18.97,32.814,28.997,70.304,28.997,108.417C472.917,261.771,468.239,266.449,462.468,266.449z"/>
<path d="M256,333.322c-42.636,0-77.322-34.686-77.322-77.322s34.686-77.322,77.322-77.322s77.322,34.686,77.322,77.322
	S298.636,333.322,256,333.322z M256,199.576c-31.113,0-56.424,25.312-56.424,56.424s25.313,56.424,56.424,56.424
	s56.424-25.312,56.424-56.424S287.112,199.576,256,199.576z"/>
<path d="M256,292.571c-20.165,0-36.571-16.406-36.571-36.571s16.406-36.571,36.571-36.571c20.166,0,36.571,16.406,36.571,36.571
	C292.571,276.165,276.165,292.571,256,292.571z M256,240.327c-8.642,0-15.673,7.031-15.673,15.673s7.031,15.673,15.673,15.673
	s15.673-7.031,15.673-15.673S264.642,240.327,256,240.327z"/>
</svg>